<svg xmlns="http://www.w3.org/2000/svg" version="1.1" xmlns:xlink="http://www.w3.org/1999/xlink" xmlns:svgjs="http://svgjs.dev/svgjs" width="1500" height="1500" viewBox="0 0 1500 1500"><rect width="1500" height="1500" fill="#000000"></rect><g transform="matrix(0.6666666666666666,0,0,0.6666666666666666,249.85778443113782,249.85778443113765)"><svg viewBox="0 0 334 334" data-background-color="#ffffff" preserveAspectRatio="xMidYMid meet" height="1500" width="1500" xmlns="http://www.w3.org/2000/svg" xmlns:xlink="http://www.w3.org/1999/xlink"><g id="tight-bounds" transform="matrix(1,0,0,1,0.04749999999998522,0.04750000000001364)"><svg viewBox="0 0 333.90454557049503 333.90454557049503" height="333.90454557049503" width="333.90454557049503"><g><svg></svg></g><g><svg viewBox="0 0 333.90454557049503 333.90454557049503" height="333.90454557049503" width="333.90454557049503"><g><path d="M0 166.952c0-92.205 74.747-166.952 166.952-166.952 92.205 0 166.952 74.747 166.953 166.952 0 92.205-74.747 166.952-166.953 166.953-92.205 0-166.952-74.747-166.952-166.953zM166.952 316.63c82.665 0 149.677-67.013 149.678-149.678 0-82.665-67.013-149.677-149.678-149.677-82.665 0-149.677 67.013-149.677 149.677 0 82.665 67.013 149.677 149.677 149.678z" data-fill-palette-color="tertiary" fill="#ffffff" stroke="transparent"></path><ellipse rx="160.27418187383762" ry="160.27418187383762" cx="166.95227278524752" cy="166.95227278524752" fill="#ffffff" stroke="transparent" stroke-width="0" fill-opacity="1" data-fill-palette-color="tertiary"></ellipse></g><g transform="matrix(1,0,0,1,104.19199768103951,71.17305217166896)"><svg viewBox="0 0 125.520550208416 191.55844122715712" height="191.55844122715712" width="125.520550208416"><g><svg viewBox="0 0 125.520550208416 191.55844122715712" height="191.55844122715712" width="125.520550208416"><g><svg viewBox="0 0 125.520550208416 191.55844122715712" height="191.55844122715712" width="125.520550208416"><g><svg viewBox="0 0 125.520550208416 191.55844122715712" height="191.55844122715712" width="125.520550208416"><g id="textblocktransform"><svg viewBox="0 0 125.520550208416 191.55844122715712" height="191.55844122715712" width="125.520550208416" id="textblock"><g><svg viewBox="0 0 125.520550208416 191.55844122715712" height="191.55844122715712" width="125.520550208416"><g transform="matrix(1,0,0,1,0,0)"><svg width="125.520550208416" viewBox="3.15 -38.6 25.85 39.45" height="191.55844122715712" data-palette-color="#ffffff"><path d="M16.1 0.85Q8.85 0.85 3.15-1.85L3.15-1.85 3.15-6.45Q8.9-3.4 16.1-3.4L16.1-3.4Q20.25-3.4 22.18-5.15 24.1-6.9 24.1-9.75L24.1-9.75Q24.1-12.45 22.33-13.8 20.55-15.15 17.1-16.15L17.1-16.15 13.7-17.1Q10.8-17.95 8.75-19.05 6.7-20.15 5.33-22.23 3.95-24.3 3.95-27.65L3.95-27.65Q3.95-33 7.08-35.8 10.2-38.6 15.95-38.6L15.95-38.6Q19.3-38.6 21.85-37.98 24.4-37.35 27.15-36.1L27.15-36.1 27.15-31.6Q22.05-34.35 15.95-34.35L15.95-34.35Q12.25-34.35 10.55-32.63 8.85-30.9 8.85-27.9L8.85-27.9Q8.9-25.15 10.53-23.85 12.15-22.55 15.6-21.55L15.6-21.55 19.05-20.6Q22.1-19.75 24.23-18.63 26.35-17.5 27.68-15.38 29-13.25 29-9.85L29-9.85Q28.95-4.9 25.53-2.02 22.1 0.85 16.1 0.85L16.1 0.85Z" opacity="1" transform="matrix(1,0,0,1,0,0)" fill="#000000" class="wordmark-text-0" data-fill-palette-color="quaternary" id="text-0"></path></svg></g></svg></g></svg></g></svg></g><g></g></svg></g></svg></g></svg></g></svg></g><defs></defs></svg><rect width="333.90454557049503" height="333.90454557049503" fill="none" stroke="none" visibility="hidden"></rect></g></svg></g></svg>